<mxfile host="app.diagrams.net" modified="2023-03-16T21:45:58.376Z" agent="5.0 (Macintosh; Intel Mac OS X 10_15_7) AppleWebKit/537.36 (KHTML, like Gecko) Chrome/110.0.0.0 Safari/537.36" etag="tQWdjL2PogSHIDAOPCsO" version="21.0.6" type="github">
  <diagram id="R2lEEEUBdFMjLlhIrx00" name="Page-1">
    <mxGraphModel dx="954" dy="615" grid="1" gridSize="10" guides="1" tooltips="1" connect="1" arrows="1" fold="1" page="1" pageScale="1" pageWidth="850" pageHeight="1100" math="0" shadow="0" extFonts="Permanent Marker^https://fonts.googleapis.com/css?family=Permanent+Marker">
      <root>
        <mxCell id="0" />
        <mxCell id="1" parent="0" />
        <object label="OnlineShop" OnlineShop="" id="Kev4fSF9HDpWs0c5DfA1-1">
          <mxCell style="rounded=0;whiteSpace=wrap;html=1;align=left;fontStyle=0" vertex="1" parent="1">
            <mxGeometry x="200" y="80" width="120" height="40" as="geometry" />
          </mxCell>
        </object>
        <mxCell id="Kev4fSF9HDpWs0c5DfA1-2" value="Pet" style="rounded=0;whiteSpace=wrap;html=1;" vertex="1" parent="1">
          <mxGeometry x="200" y="340" width="120" height="40" as="geometry" />
        </mxCell>
        <mxCell id="Kev4fSF9HDpWs0c5DfA1-6" value="shopName" style="ellipse;whiteSpace=wrap;html=1;align=center;" vertex="1" parent="1">
          <mxGeometry x="60" y="20" width="100" height="40" as="geometry" />
        </mxCell>
        <mxCell id="Kev4fSF9HDpWs0c5DfA1-7" value="shopURL" style="ellipse;whiteSpace=wrap;html=1;align=center;" vertex="1" parent="1">
          <mxGeometry x="50" y="110" width="100" height="40" as="geometry" />
        </mxCell>
        <mxCell id="Kev4fSF9HDpWs0c5DfA1-8" value="" style="endArrow=none;html=1;rounded=0;entryX=0;entryY=0.75;entryDx=0;entryDy=0;" edge="1" parent="1" target="Kev4fSF9HDpWs0c5DfA1-1">
          <mxGeometry relative="1" as="geometry">
            <mxPoint x="150" y="129.5" as="sourcePoint" />
            <mxPoint x="310" y="129.5" as="targetPoint" />
          </mxGeometry>
        </mxCell>
        <mxCell id="Kev4fSF9HDpWs0c5DfA1-9" value="" style="endArrow=none;html=1;rounded=0;entryX=0;entryY=0.25;entryDx=0;entryDy=0;" edge="1" parent="1" target="Kev4fSF9HDpWs0c5DfA1-1">
          <mxGeometry relative="1" as="geometry">
            <mxPoint x="160" y="39.5" as="sourcePoint" />
            <mxPoint x="320" y="39.5" as="targetPoint" />
          </mxGeometry>
        </mxCell>
        <mxCell id="Kev4fSF9HDpWs0c5DfA1-10" value="type" style="ellipse;whiteSpace=wrap;html=1;align=center;fontStyle=4;" vertex="1" parent="1">
          <mxGeometry x="110" y="280" width="60" height="20" as="geometry" />
        </mxCell>
        <mxCell id="Kev4fSF9HDpWs0c5DfA1-11" value="name" style="ellipse;whiteSpace=wrap;html=1;align=center;" vertex="1" parent="1">
          <mxGeometry x="110" y="320" width="60" height="20" as="geometry" />
        </mxCell>
        <mxCell id="Kev4fSF9HDpWs0c5DfA1-12" value="id" style="ellipse;whiteSpace=wrap;html=1;align=center;fontStyle=4;" vertex="1" parent="1">
          <mxGeometry x="110" y="360" width="60" height="20" as="geometry" />
        </mxCell>
        <mxCell id="Kev4fSF9HDpWs0c5DfA1-13" value="price" style="ellipse;whiteSpace=wrap;html=1;align=center;" vertex="1" parent="1">
          <mxGeometry x="115" y="390" width="55" height="20" as="geometry" />
        </mxCell>
        <mxCell id="Kev4fSF9HDpWs0c5DfA1-14" value="description" style="ellipse;whiteSpace=wrap;html=1;align=center;" vertex="1" parent="1">
          <mxGeometry x="107.5" y="430" width="62.5" height="20" as="geometry" />
        </mxCell>
        <mxCell id="Kev4fSF9HDpWs0c5DfA1-15" value="" style="endArrow=none;html=1;rounded=0;entryX=0;entryY=0;entryDx=0;entryDy=0;" edge="1" parent="1" target="Kev4fSF9HDpWs0c5DfA1-2">
          <mxGeometry relative="1" as="geometry">
            <mxPoint x="165" y="289.5" as="sourcePoint" />
            <mxPoint x="325" y="289.5" as="targetPoint" />
          </mxGeometry>
        </mxCell>
        <mxCell id="Kev4fSF9HDpWs0c5DfA1-16" value="" style="endArrow=none;html=1;rounded=0;entryX=0;entryY=0.5;entryDx=0;entryDy=0;" edge="1" parent="1" target="Kev4fSF9HDpWs0c5DfA1-2">
          <mxGeometry relative="1" as="geometry">
            <mxPoint x="170" y="369.5" as="sourcePoint" />
            <mxPoint x="330" y="369.5" as="targetPoint" />
          </mxGeometry>
        </mxCell>
        <mxCell id="Kev4fSF9HDpWs0c5DfA1-17" value="" style="endArrow=none;html=1;rounded=0;entryX=0;entryY=0.25;entryDx=0;entryDy=0;" edge="1" parent="1" target="Kev4fSF9HDpWs0c5DfA1-2">
          <mxGeometry relative="1" as="geometry">
            <mxPoint x="170" y="329.5" as="sourcePoint" />
            <mxPoint x="330" y="329.5" as="targetPoint" />
          </mxGeometry>
        </mxCell>
        <mxCell id="Kev4fSF9HDpWs0c5DfA1-18" value="" style="endArrow=none;html=1;rounded=0;entryX=0;entryY=0.75;entryDx=0;entryDy=0;" edge="1" parent="1" target="Kev4fSF9HDpWs0c5DfA1-2">
          <mxGeometry relative="1" as="geometry">
            <mxPoint x="170" y="399.5" as="sourcePoint" />
            <mxPoint x="330" y="399.5" as="targetPoint" />
          </mxGeometry>
        </mxCell>
        <mxCell id="Kev4fSF9HDpWs0c5DfA1-19" value="" style="endArrow=none;html=1;rounded=0;entryX=0;entryY=1;entryDx=0;entryDy=0;" edge="1" parent="1" target="Kev4fSF9HDpWs0c5DfA1-2">
          <mxGeometry relative="1" as="geometry">
            <mxPoint x="170" y="439.5" as="sourcePoint" />
            <mxPoint x="330" y="439.5" as="targetPoint" />
          </mxGeometry>
        </mxCell>
        <mxCell id="Kev4fSF9HDpWs0c5DfA1-20" value="Catalog" style="rounded=0;whiteSpace=wrap;html=1;" vertex="1" parent="1">
          <mxGeometry x="470" y="80" width="120" height="40" as="geometry" />
        </mxCell>
        <mxCell id="Kev4fSF9HDpWs0c5DfA1-21" value="PetCatalog" style="rounded=0;whiteSpace=wrap;html=1;" vertex="1" parent="1">
          <mxGeometry x="470" y="340" width="120" height="40" as="geometry" />
        </mxCell>
        <mxCell id="Kev4fSF9HDpWs0c5DfA1-22" value="" style="endArrow=none;html=1;rounded=0;entryX=0;entryY=0.5;entryDx=0;entryDy=0;" edge="1" parent="1" target="Kev4fSF9HDpWs0c5DfA1-20">
          <mxGeometry relative="1" as="geometry">
            <mxPoint x="320" y="99.5" as="sourcePoint" />
            <mxPoint x="480" y="99.5" as="targetPoint" />
          </mxGeometry>
        </mxCell>
        <mxCell id="Kev4fSF9HDpWs0c5DfA1-23" value="1" style="resizable=0;html=1;whiteSpace=wrap;align=right;verticalAlign=bottom;" connectable="0" vertex="1" parent="Kev4fSF9HDpWs0c5DfA1-22">
          <mxGeometry x="1" relative="1" as="geometry" />
        </mxCell>
        <mxCell id="Kev4fSF9HDpWs0c5DfA1-26" value="" style="endArrow=none;html=1;rounded=0;" edge="1" parent="1">
          <mxGeometry relative="1" as="geometry">
            <mxPoint x="320" y="360" as="sourcePoint" />
            <mxPoint x="470" y="360" as="targetPoint" />
          </mxGeometry>
        </mxCell>
        <mxCell id="Kev4fSF9HDpWs0c5DfA1-27" value="M" style="resizable=0;html=1;whiteSpace=wrap;align=left;verticalAlign=bottom;" connectable="0" vertex="1" parent="Kev4fSF9HDpWs0c5DfA1-26">
          <mxGeometry x="-1" relative="1" as="geometry" />
        </mxCell>
        <mxCell id="Kev4fSF9HDpWs0c5DfA1-28" value="N" style="resizable=0;html=1;whiteSpace=wrap;align=right;verticalAlign=bottom;" connectable="0" vertex="1" parent="Kev4fSF9HDpWs0c5DfA1-26">
          <mxGeometry x="1" relative="1" as="geometry" />
        </mxCell>
        <mxCell id="Kev4fSF9HDpWs0c5DfA1-29" value="" style="endArrow=none;html=1;rounded=0;entryX=0.5;entryY=0;entryDx=0;entryDy=0;exitX=0.5;exitY=1;exitDx=0;exitDy=0;" edge="1" parent="1" source="Kev4fSF9HDpWs0c5DfA1-20" target="Kev4fSF9HDpWs0c5DfA1-21">
          <mxGeometry relative="1" as="geometry">
            <mxPoint x="440" y="190" as="sourcePoint" />
            <mxPoint x="600" y="190" as="targetPoint" />
          </mxGeometry>
        </mxCell>
        <mxCell id="Kev4fSF9HDpWs0c5DfA1-30" value="belong" style="shape=rhombus;perimeter=rhombusPerimeter;whiteSpace=wrap;html=1;align=center;" vertex="1" parent="1">
          <mxGeometry x="340" y="70" width="120" height="60" as="geometry" />
        </mxCell>
        <mxCell id="Kev4fSF9HDpWs0c5DfA1-31" value="select" style="shape=rhombus;perimeter=rhombusPerimeter;whiteSpace=wrap;html=1;align=center;" vertex="1" parent="1">
          <mxGeometry x="340" y="330" width="120" height="60" as="geometry" />
        </mxCell>
        <mxCell id="Kev4fSF9HDpWs0c5DfA1-32" value="petID" style="ellipse;whiteSpace=wrap;html=1;align=center;" vertex="1" parent="1">
          <mxGeometry x="630" y="320" width="80" height="20" as="geometry" />
        </mxCell>
        <mxCell id="Kev4fSF9HDpWs0c5DfA1-33" value="catalogID" style="ellipse;whiteSpace=wrap;html=1;align=center;" vertex="1" parent="1">
          <mxGeometry x="630" y="380" width="80" height="20" as="geometry" />
        </mxCell>
        <mxCell id="Kev4fSF9HDpWs0c5DfA1-36" value="" style="endArrow=none;html=1;rounded=0;exitX=1;exitY=0.75;exitDx=0;exitDy=0;" edge="1" parent="1" source="Kev4fSF9HDpWs0c5DfA1-21">
          <mxGeometry relative="1" as="geometry">
            <mxPoint x="470" y="389" as="sourcePoint" />
            <mxPoint x="630" y="389" as="targetPoint" />
          </mxGeometry>
        </mxCell>
        <mxCell id="Kev4fSF9HDpWs0c5DfA1-37" value="" style="endArrow=none;html=1;rounded=0;entryX=0;entryY=0.5;entryDx=0;entryDy=0;exitX=1;exitY=0.25;exitDx=0;exitDy=0;" edge="1" parent="1" source="Kev4fSF9HDpWs0c5DfA1-21" target="Kev4fSF9HDpWs0c5DfA1-32">
          <mxGeometry relative="1" as="geometry">
            <mxPoint x="340" y="290" as="sourcePoint" />
            <mxPoint x="500" y="290" as="targetPoint" />
          </mxGeometry>
        </mxCell>
      </root>
    </mxGraphModel>
  </diagram>
</mxfile>
